<?xml version="1.0" encoding="utf-8"?>
<svg id="master-artboard" viewBox="0 0 1407.67041015625 519.5465087890625" version="1.1" xmlns="http://www.w3.org/2000/svg" x="0px" y="0px" style="enable-background:new 0 0 1400 980;" width="1407.67041015625px" height="519.5465087890625px"><rect id="ee-background" x="0" y="0" width="1407.67041015625" height="519.5465087890625" style="fill: white; fill-opacity: 0; pointer-events: none;" transform="matrix(1, 0, 0, 1, -16, 0)"/><g transform="matrix(1.5167930126190186, 0, 0, 1.5167930126190186, 5.313591957092285, 2.1640281677246094)"><title>Asset 9</title><g id="Layer_2" data-name="Layer 2"><g id="Layer_1-2" data-name="Layer 1"><path class="cls-1" d="M152.51,97l-121,41.38v50.84l21.11,40.31q1.47,2.8,2.9,5.56c7.12,13.69,13.85,26.63,22.74,38.11,1.87,2.41,3.82,4.69,5.82,6.86a4.52,4.52,0,0,1,1.36.59A54.14,54.14,0,0,0,95.2,280a99.6,99.6,0,0,1-10.62-11.72c-8.46-10.91-15-23.54-22-36.9l-2.91-5.58L39.5,187.24V144.09l113-38.63,111,38.61v43.21L238.12,238c-8.31,16.63-15.92,31.82-27.2,43.86,2.88.31,4.82.39,7.55-1.08,2.54-1.37,4.7-3.52,7-5.25a6.65,6.65,0,0,1,.56-.36,6.41,6.41,0,0,1,1.39-1.41c6.72-9.95,12.23-20.93,17.86-32.18l26.22-52.45V138.38Z" style="fill: rgb(255, 255, 255);"/><path class="cls-1" d="M152,218.73a4,4,0,0,1-4-4v-112a4,4,0,0,1,8,0v112A4,4,0,0,1,152,218.73Z" style="fill: rgb(255, 255, 255);"/><path class="cls-1" d="M254,139.93a4,4,0,0,1-4-4V73.73H55v62.2a4,4,0,0,1-8,0V69.73a4,4,0,0,1,4-4H254a4,4,0,0,1,4,4v66.2A4,4,0,0,1,254,139.93Z" style="fill: rgb(255, 255, 255);"/><path class="cls-1" d="M203,73.73a4,4,0,0,1-4-4v-30H104.75v30a4,4,0,1,1-8,0v-34a4,4,0,0,1,4-4H203a4,4,0,0,1,4,4v34A4,4,0,0,1,203,73.73Z" style="fill: rgb(255, 255, 255);"/><path class="cls-1" d="M131.5,39.73a4,4,0,0,1-4-4v-25a4,4,0,0,1,1.31-3c.76-.7,19-16.82,46.25-.47A4,4,0,0,1,177,10.73v24a4,4,0,0,1-8,0V13c-17.4-9.47-29.59-3-33.5-.35v23A4,4,0,0,1,131.5,39.73Z" style="fill: rgb(255, 255, 255);"/><path class="cls-1" d="M183,315.73c-4.28.12-8.52,2.31-12.61,6.52-1.27,1.3-2.45,2.69-3.59,4a50,50,0,0,1-5.39,5.72c-1.71,1.46-6.2,4.75-11,3.56-2.69-.66-5-2.67-7-4.73-1-1-2.06-2.14-3.15-3.31-5.16-5.53-11-11.8-18.23-11.8h-1.5c-4.24.11-7,2.28-11.15,6.52-1.27,1.3-2.45,2.69-3.59,4a50,50,0,0,1-5.39,5.72c-1.71,1.46-6.2,4.75-11,3.56-2.69-.66-5-2.67-7-4.73-1-1-2.06-2.14-3.15-3.31-5.16-5.53-11-11.8-18.23-11.8h0c-4.28.12-8.52,2.31-12.61,6.52-1.27,1.3-2.45,2.69-3.59,4A50,50,0,0,1,39.37,332c-1.71,1.46-6.2,4.75-11,3.56-2.69-.66-5-2.67-7-4.73-1-1-2.06-2.14-3.15-3.31-5.16-5.53-11-11.8-18.23-11.8v3c5.92,0,11.29,5.76,16,10.85,1.11,1.19,2.17,2.32,3.22,3.38,2.37,2.37,5,4.68,8.43,5.53a11.69,11.69,0,0,0,2.78.33c3.58,0,7.41-1.58,10.86-4.53A52.56,52.56,0,0,0,47,328.23c1.12-1.3,2.26-2.66,3.46-3.89,2.42-2.49,6.21-5.48,10.52-5.61,5.91,0,11.28,5.76,16,10.85,1.12,1.19,2.17,2.32,3.22,3.38,2.37,2.37,5,4.68,8.43,5.53a11.69,11.69,0,0,0,2.78.33c3.58,0,7.41-1.58,10.86-4.53a52.56,52.56,0,0,0,5.72-6.06c1.12-1.3,2.26-2.66,3.46-3.89,3.55-3.65,7.08-5.55,10.5-5.65v0c5.92,0,11.29,5.76,16,10.85,1.11,1.19,2.17,2.32,3.22,3.38,2.37,2.37,5,4.68,8.43,5.53a11.69,11.69,0,0,0,2.78.33c3.58,0,7.41-1.58,10.86-4.53a52.56,52.56,0,0,0,5.72-6.06c1.12-1.3,2.26-2.66,3.46-3.89,2.42-2.49,6.21-5.48,10.52-5.61,5.91,0,11.28,5.76,16,10.85,1.12,1.19,2.17,2.32,3.22,3.38,2.37,2.37,5,4.68,8.43,5.53a11.69,11.69,0,0,0,2.78.33c3.58,0,7.41-1.58,10.86-4.53a52.56,52.56,0,0,0,5.72-6.06c1.12-1.3,2.26-2.66,3.46-3.89a26.48,26.48,0,0,1,2.73-2.46,17.76,17.76,0,0,1,2.71-1.77,13.24,13.24,0,0,1,2.69-1.07,10.35,10.35,0,0,1,3.68-.26,9.51,9.51,0,0,1,2,.37,12.6,12.6,0,0,1,2.61,1.14,18.34,18.34,0,0,1,2.5,1.7c.83.66,1.63,1.37,2.4,2.1s1.57,1.56,2.33,2.36,1.53,1.63,2.29,2.45l.62.68c1.12,1.19,2.17,2.32,3.22,3.38,2.37,2.37,5,4.68,8.43,5.53a11.69,11.69,0,0,0,2.78.33c3.58,0,7.41-1.58,10.86-4.53a52.56,52.56,0,0,0,5.72-6.06c1.12-1.3,2.26-2.66,3.46-3.89,3.56-3.66,7.1-5.56,10.53-5.66l-.09-3c-4.23.12-8.47,2.32-12.59,6.56-1.27,1.3-2.45,2.69-3.59,4a50,50,0,0,1-5.39,5.72c-1.71,1.46-6.2,4.75-11,3.56-2.69-.66-5-2.67-7-4.73-1-1-2.06-2.14-3.15-3.31-.73-.78-1.45-1.56-2.19-2.33s-1.51-1.55-2.29-2.3-1.57-1.48-2.39-2.17a31.24,31.24,0,0,0-2.5-1.92,22.31,22.31,0,0,0-2.63-1.54,15.22,15.22,0,0,0-2.77-1.06,12.92,12.92,0,0,0-3.44-.48h.46a6.84,6.84,0,0,0-1.5,0c-.5.05-1,.16-1.49.25a14.14,14.14,0,0,0-2.76.9,17.8,17.8,0,0,0-2.75,1.49,23.89,23.89,0,0,0-2.73,2.07c-.66.57-1.28,1.18-1.9,1.8-1.27,1.3-2.45,2.69-3.59,4a50,50,0,0,1-5.39,5.72c-1.71,1.46-6.2,4.75-11,3.56-2.69-.66-5-2.67-7-4.73-1-1-2.06-2.14-3.15-3.31-5.16-5.53-11-11.8-18.23-11.8" style="fill: rgb(255, 255, 255);"/><path class="cls-1" d="M183,287.73c-4.28.12-8.52,2.31-12.61,6.52-1.27,1.3-2.45,2.69-3.59,4a50,50,0,0,1-5.39,5.72c-1.71,1.46-6.2,4.75-11,3.56-2.69-.66-5-2.67-7-4.73-1-1-2.06-2.14-3.15-3.31-5.16-5.53-11-11.8-18.23-11.8h-1.5c-4.24.11-7,2.28-11.15,6.52-1.27,1.3-2.45,2.69-3.59,4a50,50,0,0,1-5.39,5.72c-1.71,1.46-6.2,4.75-11,3.56-2.69-.66-5-2.67-7-4.73-1-1-2.06-2.14-3.15-3.31-5.16-5.53-11-11.8-18.23-11.8h0c-4.28.12-8.52,2.31-12.61,6.52-1.27,1.3-2.45,2.69-3.59,4A50,50,0,0,1,39.37,304c-1.71,1.46-6.2,4.75-11,3.56-2.69-.66-5-2.67-7-4.73-1-1-2.06-2.14-3.15-3.31-5.16-5.53-11-11.8-18.23-11.8v3c5.92,0,11.29,5.76,16,10.85,1.11,1.19,2.17,2.32,3.22,3.38,2.37,2.37,5,4.68,8.43,5.53a11.69,11.69,0,0,0,2.78.33c3.58,0,7.41-1.58,10.86-4.53A52.56,52.56,0,0,0,47,300.23c1.12-1.3,2.26-2.66,3.46-3.89,2.42-2.49,6.21-5.48,10.52-5.61,5.91,0,11.28,5.76,16,10.85,1.12,1.19,2.17,2.32,3.22,3.38,2.37,2.37,5,4.68,8.43,5.53a11.69,11.69,0,0,0,2.78.33c3.58,0,7.41-1.58,10.86-4.53a52.56,52.56,0,0,0,5.72-6.06c1.12-1.3,2.26-2.66,3.46-3.89,3.55-3.65,7.08-5.55,10.5-5.65v0c5.92,0,11.29,5.76,16,10.85,1.11,1.19,2.17,2.32,3.22,3.38,2.37,2.37,5,4.68,8.43,5.53a11.69,11.69,0,0,0,2.78.33c3.58,0,7.41-1.58,10.86-4.53a52.56,52.56,0,0,0,5.72-6.06c1.12-1.3,2.26-2.66,3.46-3.89,2.42-2.49,6.21-5.48,10.52-5.61,5.91,0,11.28,5.76,16,10.85,1.12,1.19,2.17,2.32,3.22,3.38,2.37,2.37,5,4.68,8.43,5.53a11.69,11.69,0,0,0,2.78.33c3.58,0,7.41-1.58,10.86-4.53a52.56,52.56,0,0,0,5.72-6.06c1.12-1.3,2.26-2.66,3.46-3.89a26.48,26.48,0,0,1,2.73-2.46,17.76,17.76,0,0,1,2.71-1.77,13.24,13.24,0,0,1,2.69-1.07,10.35,10.35,0,0,1,3.68-.26,9.51,9.51,0,0,1,2,.37,12.6,12.6,0,0,1,2.61,1.14,18.34,18.34,0,0,1,2.5,1.7c.83.66,1.63,1.37,2.4,2.1s1.57,1.56,2.33,2.36,1.53,1.63,2.29,2.45l.62.68c1.12,1.19,2.17,2.32,3.22,3.38,2.37,2.37,5,4.68,8.43,5.53a11.69,11.69,0,0,0,2.78.33c3.58,0,7.41-1.58,10.86-4.53a52.56,52.56,0,0,0,5.72-6.06c1.12-1.3,2.26-2.66,3.46-3.89,3.56-3.66,7.1-5.56,10.53-5.66l-.09-3c-4.23.12-8.47,2.32-12.59,6.56-1.27,1.3-2.45,2.69-3.59,4a50,50,0,0,1-5.39,5.72c-1.71,1.46-6.2,4.75-11,3.56-2.69-.66-5-2.67-7-4.73-1-1-2.06-2.14-3.15-3.31-.73-.78-1.45-1.56-2.19-2.33s-1.51-1.55-2.29-2.3-1.57-1.48-2.39-2.17a31.24,31.24,0,0,0-2.5-1.92,22.31,22.31,0,0,0-2.63-1.54,15.22,15.22,0,0,0-2.77-1.06,12.92,12.92,0,0,0-3.44-.48h.46a6.84,6.84,0,0,0-1.5,0c-.5.05-1,.16-1.49.25a14.14,14.14,0,0,0-2.76.9,17.8,17.8,0,0,0-2.75,1.49,23.89,23.89,0,0,0-2.73,2.07c-.66.57-1.28,1.18-1.9,1.8-1.27,1.3-2.45,2.69-3.59,4a50,50,0,0,1-5.39,5.72c-1.71,1.46-6.2,4.75-11,3.56-2.69-.66-5-2.67-7-4.73-1-1-2.06-2.14-3.15-3.31-5.16-5.53-11-11.8-18.23-11.8" style="fill: rgb(255, 255, 255);"/><path class="cls-1" d="M183,259.73c-4.28.12-8.52,2.31-12.61,6.52-1.27,1.3-2.45,2.69-3.59,4a50,50,0,0,1-5.39,5.72c-1.71,1.46-6.2,4.75-11,3.56-2.69-.66-5-2.67-7-4.73-1-1-2.06-2.14-3.15-3.31-5.16-5.53-11-11.8-18.23-11.8h-1.5c-4.24.11-7,2.28-11.15,6.52-1.27,1.3-2.45,2.69-3.59,4a50,50,0,0,1-5.39,5.72c-1.71,1.46-6.2,4.75-11,3.56-2.69-.66-5-2.67-7-4.73-1-1-2.06-2.14-3.15-3.31-5.16-5.53-11-11.8-18.23-11.8h0c-4.28.12-8.52,2.31-12.61,6.52-1.27,1.3-2.45,2.69-3.59,4A50,50,0,0,1,39.37,276c-1.71,1.46-6.2,4.75-11,3.56-2.69-.66-5-2.67-7-4.73-1-1-2.06-2.14-3.15-3.31-5.16-5.53-11-11.8-18.23-11.8v3c5.92,0,11.29,5.76,16,10.85,1.11,1.19,2.17,2.32,3.22,3.38,2.37,2.37,5,4.68,8.43,5.53a11.69,11.69,0,0,0,2.78.33c3.58,0,7.41-1.58,10.86-4.53A52.56,52.56,0,0,0,47,272.23c1.12-1.3,2.26-2.66,3.46-3.89,2.42-2.49,6.21-5.48,10.52-5.61,5.91,0,11.28,5.76,16,10.85,1.12,1.19,2.17,2.32,3.22,3.38,2.37,2.37,5,4.68,8.43,5.53a11.69,11.69,0,0,0,2.78.33c3.58,0,7.41-1.58,10.86-4.53a52.56,52.56,0,0,0,5.72-6.06c1.12-1.3,2.26-2.66,3.46-3.89,3.55-3.65,7.08-5.55,10.5-5.65v0c5.92,0,11.29,5.76,16,10.85,1.11,1.19,2.17,2.32,3.22,3.38,2.37,2.37,5,4.68,8.43,5.53a11.69,11.69,0,0,0,2.78.33c3.58,0,7.41-1.58,10.86-4.53a52.56,52.56,0,0,0,5.72-6.06c1.12-1.3,2.26-2.66,3.46-3.89,2.42-2.49,6.21-5.48,10.52-5.61,5.91,0,11.28,5.76,16,10.85,1.12,1.19,2.17,2.32,3.22,3.38,2.37,2.37,5,4.68,8.43,5.53a11.69,11.69,0,0,0,2.78.33c3.58,0,7.41-1.58,10.86-4.53a52.56,52.56,0,0,0,5.72-6.06c1.12-1.3,2.26-2.66,3.46-3.89a26.48,26.48,0,0,1,2.73-2.46,17.76,17.76,0,0,1,2.71-1.77,13.24,13.24,0,0,1,2.69-1.07,10.35,10.35,0,0,1,3.68-.26,9.51,9.51,0,0,1,2,.37,12.6,12.6,0,0,1,2.61,1.14,18.34,18.34,0,0,1,2.5,1.7c.83.66,1.63,1.37,2.4,2.1s1.57,1.56,2.33,2.36,1.53,1.63,2.29,2.45l.62.68c1.12,1.19,2.17,2.32,3.22,3.38,2.37,2.37,5,4.68,8.43,5.53a11.69,11.69,0,0,0,2.78.33c3.58,0,7.41-1.58,10.86-4.53a52.56,52.56,0,0,0,5.72-6.06c1.12-1.3,2.26-2.66,3.46-3.89,3.56-3.66,7.1-5.56,10.53-5.66l-.09-3c-4.23.12-8.47,2.32-12.59,6.56-1.27,1.3-2.45,2.69-3.59,4a50,50,0,0,1-5.39,5.72c-1.71,1.46-6.2,4.75-11,3.56-2.69-.66-5-2.67-7-4.73-1-1-2.06-2.14-3.15-3.31-.73-.78-1.45-1.56-2.19-2.33s-1.51-1.55-2.29-2.3-1.57-1.48-2.39-2.17a31.24,31.24,0,0,0-2.5-1.92,22.31,22.31,0,0,0-2.63-1.54,15.22,15.22,0,0,0-2.77-1.06,12.92,12.92,0,0,0-3.44-.48h.46a6.84,6.84,0,0,0-1.5,0c-.5.05-1,.16-1.49.25a14.14,14.14,0,0,0-2.76.9,17.8,17.8,0,0,0-2.75,1.49,23.89,23.89,0,0,0-2.73,2.07c-.66.57-1.28,1.18-1.9,1.8-1.27,1.3-2.45,2.69-3.59,4a50,50,0,0,1-5.39,5.72c-1.71,1.46-6.2,4.75-11,3.56-2.69-.66-5-2.67-7-4.73-1-1-2.06-2.14-3.15-3.31-5.16-5.53-11-11.8-18.23-11.8" style="fill: rgb(255, 255, 255);"/><path d="M415.1,195.94V128.79l-27.71,67.15h-2.5l-27.82-67.15v67.15h-6.5v-76h9.69l25.88,62.71,25.77-62.71h9.8v76.05Z" style="fill: rgb(255, 255, 255);"/><path d="M495.7,195.94l-7.52-18.69H447.93l-7.53,18.69h-7.52l31.13-76h8.09l31.13,76.05ZM468,126.85l-17.9,44.47H486Z" style="fill: rgb(255, 255, 255);"/><path d="M559,195.94l-21.33-31.46H520.89v31.46h-6.5v-76h28.4c13.11,0,23.14,8.33,23.14,22.24s-9.8,21.43-21.09,21.89l22,31.92Zm.11-53.81c0-9.58-6.84-16.31-16.88-16.31H520.89v32.73h21.32C552.25,158.55,559.09,151.71,559.09,142.13Z" style="fill: rgb(255, 255, 255);"/><path d="M582.11,195.94v-76h6.5v76.05Z" style="fill: rgb(255, 255, 255);"/><path d="M626.92,195.94V125.82H602.07v-5.93h56.32v5.93H633.53v70.12Z" style="fill: rgb(255, 255, 255);"/><path d="M671.84,195.94v-76h6.5v76.05Z" style="fill: rgb(255, 255, 255);"/><path d="M761.8,195.94V128.79l-27.71,67.15h-2.51l-27.82-67.15v67.15h-6.5v-76H707l25.88,62.71,25.77-62.71h9.81v76.05Z" style="fill: rgb(255, 255, 255);"/><path d="M842.4,195.94l-7.53-18.69H794.62l-7.52,18.69h-7.53l31.13-76h8.1l31.12,76.05Zm-27.71-69.09-17.9,44.47h35.92Z" style="fill: rgb(255, 255, 255);"/><path d="M914.9,195.94l-26.56-34.32-26.45,34.32h-8.21l30.67-39-29-37.06h8.32l24.63,32.27,24.74-32.27h8.21l-28.85,37L923,195.94Z" style="fill: rgb(255, 255, 255);"/><path d="M132.13,152.94V134.21l-7.73,18.73h-.7l-7.76-18.73v18.73h-1.82V131.73h2.71l7.22,17.49,7.19-17.49H134v21.21Z" style="fill: rgb(255, 255, 255);"/><path d="M183,151.42l-6.64-8.57-6.61,8.57h-2l7.66-9.74-7.24-9.26h2.08l6.16,8.06,6.18-8.06h2l-7.21,9.23,7.64,9.77Z" style="fill: rgb(255, 255, 255);"/><path d="M401.09,230.19l1.64,1.36a7.74,7.74,0,0,0-3.29,5.23,4.15,4.15,0,0,1,.57-.06,2.21,2.21,0,0,1,2.21,2.33,2.33,2.33,0,0,1-2.38,2.39c-1.48,0-2.79-1.31-2.79-3.64A9.81,9.81,0,0,1,401.09,230.19Zm8,0,1.65,1.36a7.75,7.75,0,0,0-3.3,5.23c.06,0,.4-.06.57-.06a2.26,2.26,0,0,1,2.27,2.33,2.36,2.36,0,0,1-2.38,2.39c-1.54,0-2.84-1.31-2.84-3.64A9.8,9.8,0,0,1,409,230.19Z" style="fill: rgb(255, 255, 255);"/><path d="M418.19,268.66v-37.9h11.19c5.63,0,9.15,3.63,9.15,9.66,0,4.77-2.5,7.78-5.68,8.69,3.58.57,6.31,4.89,6.31,9.32,0,6.31-3.36,10.23-9.49,10.23Zm17-27.9c0-3.92-1.82-7.16-6.19-7.16h-7.62v14.2H429C433.36,247.8,435.18,244.68,435.18,240.76Zm.62,17.44c0-3.92-2-7.56-6.59-7.56h-7.84v15.18h7.84C433.64,265.82,435.8,262.86,435.8,258.2Z" style="fill: rgb(255, 255, 255);"/><path d="M446.49,268.66v-37.9H465v2.84H449.67v14.2h14.94v2.84H449.67v15.18H465v2.84Z" style="fill: rgb(255, 255, 255);"/><path d="M480.07,268.66V252.41l-11.71-21.65H472l9.6,18.46,9.72-18.46h3.58l-11.71,21.65v16.25Z" style="fill: rgb(255, 255, 255);"/><path d="M496.89,249.74c0-10.86,4.83-19.61,13.75-19.61s13.75,8.75,13.75,19.61-4.89,19.6-13.75,19.6S496.89,260.59,496.89,249.74Zm24.15,0c0-9.32-3.7-16.71-10.4-16.71s-10.46,7.39-10.46,16.71,3.7,16.7,10.46,16.7S521,258.94,521,249.74Z" style="fill: rgb(255, 255, 255);"/><path d="M551.72,268.66l-16.87-31v31h-3.19v-37.9h3.19l16.76,30.57V230.76h3.18v37.9Z" style="fill: rgb(255, 255, 255);"/><path d="M563.31,268.66v-37.9h9.21c9.55,0,14.72,8.29,14.72,19s-5.17,18.92-14.72,18.92Zm20.57-18.92c0-9-3.75-16.14-11.36-16.14h-6v32.22h6C580.13,265.82,583.88,258.77,583.88,249.74Z" style="fill: rgb(255, 255, 255);"/><path d="M606.9,268.66v-37.9h11.19c5.63,0,9.15,3.63,9.15,9.66,0,4.77-2.5,7.78-5.68,8.69,3.58.57,6.31,4.89,6.31,9.32,0,6.31-3.36,10.23-9.49,10.23Zm17-27.9c0-3.92-1.82-7.16-6.2-7.16h-7.61v14.2h7.61C622.07,247.8,623.89,244.68,623.89,240.76Zm.62,17.44c0-3.92-2-7.56-6.59-7.56h-7.84v15.18h7.84C622.35,265.82,624.51,262.86,624.51,258.2Z" style="fill: rgb(255, 255, 255);"/><path d="M652.36,268.66l-8-15.8h-6v15.8H635.2v-37.9h10.51c5.68,0,9.88,4.09,9.88,11s-3.92,10.17-8,10.68l8.35,16.2Zm-.06-26.82c0-4.83-2.56-8.24-6.88-8.24h-7V250h7C649.74,250,652.3,246.61,652.3,241.84Z" style="fill: rgb(255, 255, 255);"/><path d="M661.85,249.74c0-10.86,4.83-19.61,13.75-19.61s13.75,8.75,13.75,19.61-4.89,19.6-13.75,19.6S661.85,260.59,661.85,249.74Zm24.15,0c0-9.32-3.7-16.71-10.4-16.71s-10.46,7.39-10.46,16.71,3.69,16.7,10.46,16.7S686,258.94,686,249.74Z" style="fill: rgb(255, 255, 255);"/><path d="M715.26,268.66l-12.1-17.56-3.36,4.77v12.79h-3.18v-37.9h3.18v20.68l14.38-20.68H718l-12.9,18.07,14,19.83Z" style="fill: rgb(255, 255, 255);"/><path d="M724.46,268.66v-37.9H743v2.84H727.65v14.2h14.94v2.84H727.65v15.18H743v2.84Z" style="fill: rgb(255, 255, 255);"/><path d="M767.31,268.66l-8-15.8h-6v15.8h-3.18v-37.9h10.51c5.68,0,9.89,4.09,9.89,11s-3.92,10.17-8,10.68l8.36,16.2Zm-.06-26.82c0-4.83-2.55-8.24-6.87-8.24h-7V250h7C764.7,250,767.25,246.61,767.25,241.84Z" style="fill: rgb(255, 255, 255);"/><path d="M797.65,268.66l-2.72-9.38H780.66l-2.72,9.38h-3.47l11.42-37.9h3.75l11.42,37.9Zm-9.88-34.21-6.43,22h12.85Z" style="fill: rgb(255, 255, 255);"/><path d="M803.62,249.74c0-11.71,5.62-19.61,14.15-19.61,5.11,0,8.41,2.79,10.68,6.54L825.89,238a9.21,9.21,0,0,0-8.12-5c-6.59,0-10.85,7-10.85,16.71s4.26,16.76,10.85,16.76a9.88,9.88,0,0,0,7.73-3.64V252.75h-9.89v-2.9h12.95v14.2a13.29,13.29,0,0,1-10.79,5.35C809.24,269.4,803.62,261.38,803.62,249.74Z" style="fill: rgb(255, 255, 255);"/><path d="M836.24,268.66v-37.9h18.52v2.84H839.42v14.2h14.94v2.84H839.42v15.18h15.34v2.84Z" style="fill: rgb(255, 255, 255);"/><path d="M862.54,241.44l-1.64-1.31a8.07,8.07,0,0,0,3.35-5.28,5.29,5.29,0,0,1-.57.11,2.27,2.27,0,0,1-2.27-2.39,2.36,2.36,0,0,1,2.38-2.38c1.48,0,2.79,1.3,2.79,3.63A9.66,9.66,0,0,1,862.54,241.44Zm8,0-1.71-1.31a8,8,0,0,0,3.35-5.28,4.59,4.59,0,0,1-.56.11,2.31,2.31,0,0,1-2.28-2.39,2.37,2.37,0,0,1,2.39-2.38c1.53,0,2.78,1.3,2.78,3.63A9.77,9.77,0,0,1,870.56,241.44Z" style="fill: rgb(255, 255, 255);"/></g></g></g></svg>